# xmcd
#
# Track frame offsets:
#	150
#	15958
#	40571
#	59797
#	74994
#
# Disc length: 1323 seconds
#
# Revision: 0
# Processed by: cddbd v1.5.2PL0 Copyright (c) Steve Scherf et al.
# Submitted via: dBpowerAMP V4.0
#
DISCID=42052905
DTITLE=MayBBlues - Demo Disc
DYEAR=2007
DGENRE=Blues
TTITLE0=Ain't No Sunshine
TTITLE1=Before You Accuse me
TTITLE2=Mustang Sally
TTITLE3=She Caught The Katy
TTITLE4=Cold Cold Feeling
EXTD=This is the very first demo disc of MayBBlues. Yeah!
EXTT0=
EXTT1=
EXTT2=
EXTT3=
EXTT4=
PLAYORDER=
